STARTFONT 2.1
FONT -misc-duck2-medium-r-normal--64-640-75-75-c-320-iso10646-1
SIZE 64 75 75
FONTBOUNDINGBOX 32 64 0 -13
STARTPROPERTIES 2
FONT_ASCENT 51
FONT_DESCENT 13
ENDPROPERTIES
CHARS 28
STARTCHAR duck4_pgf_8a341cba_f000001_r1_c1
ENCODING 1052231
SWIDTH 500 0
DWIDTH 32 0
BBX 32 64 0 -13
BITMAP
00000000
00000000
00000000
00000000
00000000
00000000
0000003F
0000003F
0000001F
0000001F
0000001F
0000001F
0000000F
0000000F
0000000C
0000001D
0000001D
0000001D
0000001D
0000001D
0000001C
00000018
00000018
00000038
0000003F
0000003F
0000003B
0000007B
0000FFFB
00FFFFFF
00FFFC1F
00E00007
00E00017
00E00007
00E00006
00E0000E
00E0000C
00E0000F
0070001F
0070001F
0070005F
0038003F
00380077
0038007F
001C001F
001E0007
000E0000
000F4000
0007A000
0003C000
0001E000
0000F800
00007F00
00001FF8
000007FF
000001FF
00000007
00000003
0000001F
000000FF
000003F8
00000FC0
00001FFF
00001FFF
ENDCHAR
STARTCHAR duck4_pgf_8a341cba_f000001_r1_c2
ENCODING 1052232
SWIDTH 500 0
DWIDTH 32 0
BBX 32 64 0 -13
BITMAP
00000000
00000000
00000000
00000000
00000000
FFFE0000
FFFE0000
FFFE0000
FFFE0000
FFFE0000
FFFFFC00
FFFFFC00
FFFF7C00
A0070000
C0070000
E0030000
E0030000
E0FFF000
E7FFF800
C7000C00
06000C00
07FFFC00
03FFF000
043F8000
F0038000
FFFF8000
FFFF8000
F87F8000
3C788000
3C798000
3FFFC000
FFFFE000
F000E000
F4017000
F0003800
70003800
60003800
60001C00
E0001C00
E0001C00
C0000E00
C0000E00
80000E00
00000E00
00000E00
00000E00
00001C00
00001C00
0000B800
00007800
0000F000
0003E000
000FC000
01FF8000
FFFE0000
FFF00000
FFC00000
66E00000
66FC0000
667F0000
670FC000
6601E000
E7FFF800
E7FFF800
ENDCHAR
STARTCHAR duck4_pgf_8a341cba_f000002_r1_c1
ENCODING 1052233
SWIDTH 500 0
DWIDTH 32 0
BBX 32 64 0 -13
BITMAP
00000000
00000000
00000000
00000000
00000000
00000000
0000003F
0000003F
0000001F
0000001F
0000001F
0000001F
0000000F
00000003
00000003
00000007
0000000F
0000001E
0000001D
00000039
00000039
00000079
00000075
00000070
00000075
00000070
00000067
007FFFFF
00FFFFFF
01FFFFFF
01C000FC
01D000FC
01C00078
0180001F
0180005F
0180001F
0180001F
01C0001F
01C00018
01C00018
01C00038
00E00038
00E0003F
00E0003F
0070003F
0070003F
0038003F
003C001F
001D001B
001E801F
000F401F
0007A000
0003C000
0001E000
0000F800
00007F00
00003FF0
00000FFF
000001FF
000000FF
000003F8
00000FC0
00001FFF
00001FFF
ENDCHAR
STARTCHAR duck4_pgf_8a341cba_f000002_r1_c2
ENCODING 1052234
SWIDTH 500 0
DWIDTH 32 0
BBX 32 64 0 -13
BITMAP
00000000
00000000
00000000
00000000
00000000
FFFE0000
FFFE0000
FFFE0000
FFFE0000
FFFE0000
FFFFFC00
FFFFFC00
FFFF7C00
FFF00000
E0FC0000
801E0000
000F0000
C0170000
E0078000
E0038000
E01F8000
E9FFF000
C7F07800
07000C00
46000C00
17FFF800
E1FFF000
FFFEE000
FFFFE000
F87FF000
787C3000
787C3000
7FFE7000
FFFFF800
E7FFFC00
E0001C00
E0000E00
E0000700
E0000780
E0000380
E0000380
C00001C0
C00001C0
C00001C0
C00001C0
C0000380
C0000380
C0000380
80000700
C0000700
80002E00
00001E00
00003C00
0000F800
0003F000
000FC000
00FF8000
FFFE0000
FFFC0000
FFFF0000
660FC000
6601E000
E7FFF800
E7FFF800
ENDCHAR
STARTCHAR duck4_pgf_8a341cba_f000003_r1_c1
ENCODING 1052235
SWIDTH 500 0
DWIDTH 32 0
BBX 32 64 0 -13
BITMAP
00000000
00000000
00000000
00000000
00000000
00000000
00000000
00000001
0000001F
0000003F
0000003F
0000003F
0000001F
0000001F
0000000F
0000000F
00000000
00000000
00000000
00000000
00000000
00000000
00000000
00000000
00000000
00000003
0000000F
0000001F
0000003E
0007FFFD
000FFFF9
001E00F5
001802E1
003A01ED
003801E0
003801EF
003803FF
003003FF
007003FF
007003FB
007001F1
007001F3
00700063
0070007F
007000FF
007000FE
007000FE
007000C6
007000CE
007001CC
007001EC
003801FC
003801FC
003801FC
003C01FC
001C00FC
001E00F8
000E00FC
000F00FC
0007800C
0003E000
0001FFFF
0000FFFF
00003FFF
ENDCHAR
STARTCHAR duck4_pgf_8a341cba_f000003_r1_c2
ENCODING 1052236
SWIDTH 500 0
DWIDTH 32 0
BBX 32 64 0 -13
BITMAP
00000000
00000000
00000000
00000000
00000000
00FC0000
1FFC0000
FFFC0000
FFFE0000
FFFE3C00
FFFFFC00
FFFFFC00
FFFE0000
FFC00000
F8000000
80000000
00000000
00000000
00000000
00000000
00000000
00000000
00000000
1FF80000
FFFE0000
FFFF0000
F0078000
0003C000
C001E000
E01FE000
E9FFF000
E7FCF800
E7000C00
E6000C00
D7F1FC00
C1FFFE00
FFFFF700
FFFFF300
E1E1F700
E1E1FF80
C1FFFFC0
FFFFF1C0
FFFC05E0
000000E0
000000E0
000000E0
000000E0
00000070
00000070
00000060
000000E0
000000E0
000000E0
000001C0
000001C0
000003C0
00000380
00000780
00000700
00000E00
00001E00
FFFFFC00
FFFFF800
FFFFF800
ENDCHAR
STARTCHAR duck4_pgf_8a341cba_f000004_r1_c1
ENCODING 1052237
SWIDTH 500 0
DWIDTH 32 0
BBX 32 64 0 -13
BITMAP
00000000
00000000
00000000
00000000
00000000
00000000
00000000
00000000
00000000
00000001
0000000F
0000003F
0000003F
0000003F
0000001F
0000001F
0000000F
0000000F
00000000
00000000
00000000
00000000
00000000
00000000
00000000
00000000
00000000
00000000
00000000
00000000
00000003
00000007
0000001F
0000003E
0000003C
0003FFFA
001FFFF4
003FFFE9
007803E1
00F007FF
01E807FF
01D00FFF
01C007DF
01C003C7
01C0018F
038001FF
038003FF
038003F9
03800378
03800738
01C00630
01C007B0
01C007F0
01C007F0
00E007F0
00E007E0
00F007C0
00700FE0
003807E0
003C0040
001F0500
000FE000
0003FFFF
0001FFFF
ENDCHAR
STARTCHAR duck4_pgf_8a341cba_f000004_r1_c2
ENCODING 1052238
SWIDTH 500 0
DWIDTH 32 0
BBX 32 64 0 -13
BITMAP
00000000
00000000
00000000
00000000
00000000
00000000
007C0000
07FC0000
3FFC0000
FFFC0000
FFFC7C00
FFFFFC00
FFFFF000
FFFE0000
FFE00000
FE000000
F0000000
00000000
00000000
00000000
00000000
00000000
00000000
00000000
00000000
00000000
00000000
00000000
00000000
7FFE0000
FFFF0000
FFFF8000
C003C000
001DE000
E000F000
F03FFE00
F0FFFF00
F5E00380
F1C00180
EFF81F80
FFFFFFC0
FFE7F9C0
83E0FFC0
83E0FFC0
83F7FFE0
FFFFF8F0
FFFF8170
FFC00070
00000038
00000038
00000038
00000038
00000038
00000038
00000070
00000070
00000070
000000E0
000000E0
000005C0
000003C0
3FFFFF80
FFFFFF00
FFFFFE00
ENDCHAR
STARTCHAR duck4_pgf_8a341cba_f000005_r1_c1
ENCODING 1052239
SWIDTH 500 0
DWIDTH 32 0
BBX 32 64 0 -13
BITMAP
00000000
00000000
00000000
00000000
00000000
00000000
00000000
00000000
00000000
00000000
00000000
00000000
00000000
00000000
00000000
00000000
00000000
00000000
00000000
00000000
00000007
0000003F
0000003F
0000003F
0000001F
0000001F
0000000F
0000000F
00000006
00000000
00000000
00000000
00000000
00000000
00000007
0000001F
0000003F
000000FD
000003F1
0007FFF9
003FFFFF
007FFFFF
00F80FFF
01E017BF
0390030F
0700079F
070007FF
0E000FFF
0E000FE7
0E000DE0
0E0018E0
0E001EC0
0E001FC0
0E001FC0
0E001FC0
07001FC0
07000780
07A01BC0
03C01FC0
01E01BC0
00F80000
007F8000
001FFFFF
0007FFFF
ENDCHAR
STARTCHAR duck4_pgf_8a341cba_f000005_r1_c2
ENCODING 1052240
SWIDTH 500 0
DWIDTH 32 0
BBX 32 64 0 -13
BITMAP
00000000
00000000
00000000
00000000
00000000
00000000
00000000
00000000
00000000
00000000
00000000
00000000
00000000
00000000
00000000
00000000
00080000
01FC0000
0FFC0000
FFFC0000
FFFC0C00
FFFFFC00
FFFFFC00
FFFF8000
FFF80000
FF800000
FC000000
C0000000
00000000
00000000
00000000
00000000
00000000
7FE00000
FFF80000
FFFE0000
E03F8000
F407E000
F01FFF00
F07FCF80
E97000C0
806000E0
FFFE1FE0
FFFFFF70
DFF1FE30
83F03E78
83F03FF8
FFFFFFFC
FFFFFF9C
FFFFF85C
0000001C
0000001C
0000001C
0000001C
0000001C
0000001C
0000001C
00000038
00000038
00000070
000000F0
3FFFFFE0
FFFFFFC0
FFFFFF00
ENDCHAR
STARTCHAR duck4_pgf_8a341cba_f000006_r1_c1
ENCODING 1052241
SWIDTH 500 0
DWIDTH 32 0
BBX 32 64 0 -13
BITMAP
00000000
00000000
00000000
00000000
00000000
00000000
00000000
00000000
00000000
00000000
00000000
00000000
00000000
00000000
00000000
00000000
00000000
00000000
00000000
00000000
00000000
00000000
00000000
00000000
00000000
00000000
00000000
00000000
00000000
00000000
00000003
0000003F
0000003F
0000001F
0000001F
0000001F
0000001F
0000001F
000001FF
00001FFD
0001FFE1
0007FFE3
001FFFFD
007FBFFE
00FC1FFF
01F02E3F
03C01C7E
07803FFF
0F003FDF
0F007F83
1E006380
1E006340
1E006F00
1C007F00
1C007F00
1C007F00
1E007F00
1E002600
0E007F00
0E007F00
0F000800
07FFB7FF
03FFFFFF
01FFFFFF
ENDCHAR
STARTCHAR duck4_pgf_8a341cba_f000006_r1_c2
ENCODING 1052242
SWIDTH 500 0
DWIDTH 32 0
BBX 32 64 0 -13
BITMAP
00000000
00000000
00000000
00000000
00000000
00000000
00000000
00000000
00000000
00000000
00000000
00000000
00000000
00000000
00000000
00000000
00000000
00000000
00000000
00000000
00000000
00000000
00000000
00000000
00000000
00000000
00000000
00000000
00000000
00000000
FFFE0000
FFFE0000
FFFE0000
FFFE0000
FFFE0000
FFFFFC00
FFFFFC00
FFFFFC00
F807C000
F019F000
F807FC00
F83FFF80
F07E01C0
E06000C0
F07001C0
FFFFFFE0
3FFFFFE0
07FFFE60
FFF0FE70
FFFFFFF0
3FFFFFF0
003FFE70
00000070
00000070
00000070
00000070
00000070
00000070
00000070
00000170
000000F0
FFFC01E0
FFFFFFC0
FFFFFFC0
ENDCHAR
STARTCHAR duck4_pgf_8a341cba_f000007_r1_c1
ENCODING 1052243
SWIDTH 500 0
DWIDTH 32 0
BBX 32 64 0 -13
BITMAP
00000000
00000000
00000000
00000000
00000000
00000000
00000000
00000000
00000000
00000000
00000000
00000000
00000000
00000000
00000000
00000000
00000000
00000000
00000000
00000000
00000000
00000000
00000000
00000000
00000000
00000000
00000000
00000000
00000000
00000000
00000000
0000001F
0000001F
0000001F
0000000F
0000000F
0000000F
0000001F
000001FF
00001FFD
0001FFE1
0007FFE3
001FFFFD
007FBFFE
00FC1FFF
01F02E3F
03C01C7E
07803FFF
0F003FDF
0F007F83
1E006380
1E006340
1E006F00
1C007F00
1C007F00
1C007F00
1E007F00
1E002600
0E007F00
0E007F00
0F000800
07FFB7FF
03FFFFFF
01FFFFFF
ENDCHAR
STARTCHAR duck4_pgf_8a341cba_f000007_r1_c2
ENCODING 1052244
SWIDTH 500 0
DWIDTH 32 0
BBX 32 64 0 -13
BITMAP
00000000
00000000
00000000
00000000
00000000
00000000
00000000
00000000
00000000
00000000
00000000
00000000
00000000
00000000
00000000
00000000
00000000
00000000
00000000
00000000
00000000
00000000
00000000
00000000
00000000
00000000
00000000
00000000
00000000
00000000
00000000
FFFF0000
FFFF0000
FFFF0000
FFFF0000
FFFF0000
FFFFFC00
FFFFFE00
EFFFFE00
F001F000
F807FC00
F83FFF80
F07E01C0
E06000C0
F07001C0
FFFFFFE0
3FFFFFE0
07FFFE60
FFF0FE70
FFFFFFF0
3FFFFFF0
003FFE70
00000070
00000070
00000070
00000070
00000070
00000070
00000070
00000170
000000F0
FFFC01E0
FFFFFFC0
FFFFFFC0
ENDCHAR
STARTCHAR duck4_pgf_8a341cba_f000008_r1_c1
ENCODING 1052245
SWIDTH 500 0
DWIDTH 32 0
BBX 32 64 0 -13
BITMAP
00000000
00000000
00000000
00000000
00000000
00000000
00000000
00000000
00000000
00000000
00000000
00000000
00000000
00000000
00000000
00000000
00000000
00000000
00000000
00000000
00000000
00000000
00000000
00000000
00000000
0000000F
0000003F
0000007F
0000007F
0000003F
0000003F
0000001F
0000003C
00000079
00000073
000000E3
000001EB
000007D3
00001FC1
00007FF8
0000FFFE
0001FF7F
0003CFFF
000797CF
000F0187
001E038F
001C07DF
003C0FFF
00380FF0
007819E0
007038C0
00F031C0
00E07180
01E07B00
01E0FF00
01C0FE00
01C0FE00
03C0FE00
03C1FC00
03A5E800
0381F800
03FFFFFF
03FFFFFF
01FFFFFF
ENDCHAR
STARTCHAR duck4_pgf_8a341cba_f000008_r1_c2
ENCODING 1052246
SWIDTH 500 0
DWIDTH 32 0
BBX 32 64 0 -13
BITMAP
00000000
00000000
00000000
00000000
00000000
00000000
00000000
00000000
00000000
00000000
00000000
00000000
00000000
00000000
00000000
00000000
00000000
00000000
00000000
00000000
00000000
00000000
00000000
00000000
FF800000
FFFC0000
FFFF0000
FFFF8000
FFFFC000
FFFFC000
FFFFC000
FFFFE000
07FFFC00
C003FF00
E00DEF00
E000F200
E00FF800
C03FBE00
C0F80600
00C00300
02C00300
C0F00E00
FF3FFF00
FFFFFF80
8FFFF9C0
87EFF0C0
C7E1FBC0
FFE1FFE0
FFFFFEF0
0FFFF070
00000170
00000078
00000038
00000038
00000038
00000038
00000038
00000038
00000038
000000B8
00000038
FFFFFFF8
FFFFFFF8
FFFFFFF0
ENDCHAR
STARTCHAR duck4_pgf_8a341cba_f000009_r1_c1
ENCODING 1052247
SWIDTH 500 0
DWIDTH 32 0
BBX 32 64 0 -13
BITMAP
00000000
00000000
00000000
00000000
00000000
00000000
00000007
0000003F
0000007F
000000FF
0000007F
0000007F
00000070
00000067
00000067
00000067
00000067
00000067
00000067
00000067
00000067
00000067
00000067
000000E7
000000E7
000000E7
000000E0
000000EF
000001FF
000001FF
000001FF
000003FF
000003FF
000003FF
000003F1
000003B1
000003B1
00000731
00000773
00000F73
00000E7F
00001E7F
00001D7F
00001D7E
00003C7E
0000387E
000038EC
000078EC
000070DC
000070D8
0000F0F8
0000F1F8
0000F1F0
0000F0F0
000071E0
000075F0
000073F0
00007BF0
00003AC0
00003DC0
00001E00
00000FF8
00001FFF
00001FFF
ENDCHAR
STARTCHAR duck4_pgf_8a341cba_f000009_r1_c2
ENCODING 1052248
SWIDTH 500 0
DWIDTH 32 0
BBX 32 64 0 -13
BITMAP
00000000
00000000
00000000
00000000
00000000
1E000000
FFE00000
FFF00000
FFF00000
FFF80000
FFFE0000
003F0000
005F8000
001DC000
000EE000
800E7000
801E7000
81FFB800
81FFB000
81C0C000
81C0E000
81C06000
80E07000
80E03000
80E03800
00701800
00701C00
80381C00
FFB80C00
FFFC0E00
FFFE0E00
F0FE0600
F0F78600
F0F3FE00
F0FFFC00
FFFF7800
FFFF6000
80007000
80007000
00007000
00007000
00007800
00003800
00003800
00003800
00003800
00003C00
00003C00
00001C00
00001C00
00001C00
00001C00
00001C00
00001C00
00001C00
00001C00
00003C00
0000B800
00017800
0000F000
0003E000
001FE000
FFFFF800
FFFFF800
ENDCHAR
STARTCHAR duck4_pgf_8a341cba_f000010_r1_c1
ENCODING 1052249
SWIDTH 500 0
DWIDTH 32 0
BBX 32 64 0 -13
BITMAP
00000000
00000000
00000000
00000003
0000001F
0000007F
000000FF
000001FF
000001FF
000000FF
000000FF
00000070
00000077
00000067
00000067
000000E7
000000E7
000000E7
000000C0
000000C0
000000C0
000001C0
000001D0
000001CF
000001DF
000001FF
000003FF
000003D9
000003F9
000003F9
000003FF
000003BF
000003BF
000007BF
0000073F
00000F31
00000E73
00001E63
00001D6B
00003C7F
000038FF
00003AFE
0000787E
0000709C
000070FC
0000F1FC
0000F02C
0000F000
0000F000
00007000
00007400
00007000
00003800
00003E00
00001FC0
000007FF
000003FF
0000007F
0000001F
000000FE
000003F8
00000FC0
00001FFF
00001FFF
ENDCHAR
STARTCHAR duck4_pgf_8a341cba_f000010_r1_c2
ENCODING 1052250
SWIDTH 500 0
DWIDTH 32 0
BBX 32 64 0 -13
BITMAP
00000000
00000000
7FF00000
FFF80000
FFF80000
FFF80000
FFF8F800
FFFFFC00
FFFFF800
FE3C0000
004E3E00
0007FF80
001FC180
807C0180
81F00380
81C00700
81803E00
81FFF800
00FFC000
00070000
00070000
00170000
01830000
FFFF0000
FFFF8000
E1FF8000
E1F18000
FFFD8000
FFFF8000
FFFF8000
80038000
A00B8000
8003C000
8001C000
8001C000
8001C000
8001E000
0000E000
0000E000
0000E000
0000F000
00007000
00007000
00007000
00007000
00007000
00007000
00007000
0000F000
0000E000
0000E000
0001E000
0003C000
000F8000
003F0000
FFFE0000
FFF80000
FFE00000
FFFC0000
667F0000
670FC000
6601E000
E7FFF800
E7FFF800
ENDCHAR
STARTCHAR duck4_pgf_8a341cba_f000011_r1_c1
ENCODING 1052251
SWIDTH 500 0
DWIDTH 32 0
BBX 32 64 0 -13
BITMAP
00000000
00000000
0000000F
0000003F
0000003F
0000001F
0000001F
0000001F
0000001F
0000000F
0000000F
0000000C
0000001D
0000001D
0000007D
000007FD
00003FD9
00007E38
0000F038
0001C070
000380E0
000381FA
000741FF
000701FF
000601EF
000600FD
0006007C
0006001C
0006005C
0006001F
0007003F
00070037
00070163
000700E3
000381E7
000383FE
0001C3FC
0001CFFC
0000EFF8
0000F770
00007BC0
00003DC0
00001E00
00000F00
000007C0
000003F0
000000FC
0000007F
0000001F
00000007
00000003
00000003
00000003
00000003
00000003
00000003
00000003
00000003
0000001F
000000FF
000003F8
00000FC0
00001FFF
00001FFF
ENDCHAR
STARTCHAR duck4_pgf_8a341cba_f000011_r1_c2
ENCODING 1052252
SWIDTH 500 0
DWIDTH 32 0
BBX 32 64 0 -13
BITMAP
00000000
01FC0000
FFFE0000
FFFE0400
FFFE1E00
FFFE7C00
FFFFF800
FFFFE000
FFFF0000
FFFE0000
80070000
C0070000
E00B0000
E0030000
E07FE000
E3FFF800
E7C01C00
C6000C00
07803C00
03FFF800
01FFE000
0000C000
C1FFE000
FFFFE000
FFFF7000
F87C3000
F87C7000
FFFFF800
FFFFF800
DFFC3800
C000B800
80003800
80003800
00003800
00003800
00003800
00003800
00003800
00003800
00007000
00007000
0000F000
0002E000
0005E000
0003C000
00078000
001F0000
80FE0000
FFF80000
FFE00000
FFC00000
76C00000
76C00000
76C00000
76C00000
66C00000
66C00000
66E00000
66FC0000
667F0000
670FC000
6601E000
E7FFF800
E7FFF800
ENDCHAR
STARTCHAR duck4_pgf_8a341cba_f000012_r1_c1
ENCODING 1052253
SWIDTH 500 0
DWIDTH 32 0
BBX 32 64 0 -13
BITMAP
00000000
00000000
0000000F
0000003F
0000003F
0000001F
0000001F
0000001F
0000001F
0000000F
0000000F
0000000C
0000001D
0000001D
0000001D
0000001D
0000001D
0000001C
0000001C
00007FF8
0007FFF8
003FFFBB
007F007F
00F0007F
00E000FF
00E000FE
00E0007E
00E0001C
00E0000F
00E0001F
00E0001F
00E0001F
00E0003B
00600031
00700031
00700071
0070007F
003800FF
0038007F
001C00FE
001C01FE
000E01FC
000F007C
00078018
0003C000
0001F000
0000FC00
00003F80
00001FF8
000007FF
000000FF
00000003
00000003
00000003
00000003
00000003
00000003
00000003
0000001F
000000FF
000003F8
00000FC0
00001FFF
00001FFF
ENDCHAR
STARTCHAR duck4_pgf_8a341cba_f000012_r1_c2
ENCODING 1052254
SWIDTH 500 0
DWIDTH 32 0
BBX 32 64 0 -13
BITMAP
00000000
01FC0000
FFFE0000
FFFE0000
FFFE0000
FFFE0C00
FFFFFC00
FFFFFC00
FFFF0000
FFF60000
80070000
C0070000
E00B0000
E0030000
E07FE000
E3FFF800
E7C01C00
C6000C00
07803C00
03FFF800
01FFE000
8000C000
FFFFE000
FFFFF000
FFFE3800
783E1800
783E3C00
7FFFFC00
7FFFFC00
FFFF0E00
C0002E00
D0000E00
C0000E00
C0000E00
80000600
80000700
80000700
00000E00
00000E00
00000E00
00000E00
00005C00
00003C00
00003800
00027000
0001F000
0003E000
001F8000
07FF0000
FFFC0000
FFE00000
FEC00000
76C00000
76C00000
76C00000
66C00000
66C00000
66E00000
66FC0000
667F0000
670FC000
6601E000
E7FFF800
E7FFF800
ENDCHAR
STARTCHAR duck4_pgf_8a341cba_f000013_r1_c1
ENCODING 1052255
SWIDTH 500 0
DWIDTH 32 0
BBX 32 64 0 -13
BITMAP
00000000
00000000
0000000F
0000003F
0000003F
0000001F
0000001F
0000001F
0000001F
0000000F
0000000F
0000000C
0000001D
0000001D
0000001D
0000001D
0000001D
0000001C
0000001C
00000018
00000038
0000001A
00000039
00007FFF
0007FFFF
003FFC7F
007E017F
00F0003E
00E0001E
00C0002E
00C0000F
00C0000F
00C0001F
00E0001F
00E00019
00E00031
00E00031
00E0007D
0060007F
0070007F
007000FF
003801FE
003801FC
003C007C
001C0018
000E0000
000F0000
00078000
0003C000
0001F000
0000FE00
00003FF8
00000FFF
000001FF
00000007
00000003
00000003
00000003
0000001F
000000FF
000003F8
00000FC0
00001FFF
00001FFF
ENDCHAR
STARTCHAR duck4_pgf_8a341cba_f000013_r1_c2
ENCODING 1052256
SWIDTH 500 0
DWIDTH 32 0
BBX 32 64 0 -13
BITMAP
00000000
01FC0000
FFFE0000
FFFE0000
FFFE0000
FFFE0000
FFFE0000
FFFFFC00
FFFFFC00
FFFF0400
80070000
C0070000
E00B0000
E0030000
E07FE000
E3FFF800
E7C01C00
C6000C00
07803C00
03FFF800
01FFE000
0001C000
0000E000
F1FFF000
FFFFF000
FFFE3800
F83E1800
783FF800
3FFFF800
7FFFDC00
FFE01C00
E0005C00
E0001C00
C0001C00
C0001C00
C0001C00
80001C00
80001C00
00001C00
00001C00
00003800
00003800
00003800
00007000
00007000
0002E000
0001E000
0003C000
000F8000
003F0000
01FE0000
FFF80000
FFE00000
FFC00000
F6C00000
66C00000
66C00000
66E00000
66FC0000
667F0000
670FC000
6601E000
E7FFF800
E7FFF800
ENDCHAR
STARTCHAR duck4_pgf_8a341cba_f000014_r1_c1
ENCODING 1052257
SWIDTH 500 0
DWIDTH 32 0
BBX 32 64 0 -13
BITMAP
00000000
00000000
00000000
00000000
00000000
0000001F
0000003F
0000003F
0000001F
0000001F
0000001F
0000000F
0000000F
0000000C
0000001D
0000001D
0000001D
0000001D
0000001D
0000001C
0000001C
00000018
00000038
00000018
0000003F
0000007F
0000FFFB
003FFFFB
00FFF87F
01FC00BE
01C00006
01D00017
01C00007
01C0000F
01C0000F
00E0000C
00E0001C
00E00018
0070001F
0070003F
0070003F
0038003F
0038007F
003C007B
001C007F
000E001F
000E0000
00070000
00079000
0003E000
0001F000
00007C00
00003FC0
00000FFF
000003FF
0000003F
00000003
00000003
0000001F
000000FF
000003F8
00000FC0
00001FFF
00001FFF
ENDCHAR
STARTCHAR duck4_pgf_8a341cba_f000014_r1_c2
ENCODING 1052258
SWIDTH 500 0
DWIDTH 32 0
BBX 32 64 0 -13
BITMAP
00000000
00000000
00000000
00000000
3FFE0000
FFFE0000
FFFE0000
FFFE0000
FFFE0000
FFFFFC00
FFFFFC00
FFFFFC00
FE070000
C0070000
E00B0000
E0030000
E07FE000
E3FFF800
E7C01C00
C6000C00
07803C00
03FFF800
00FFC000
00038000
F0038000
FFFF8000
FFFF8000
F87CC000
3C7CC000
3FFFE000
3FFFE000
F7FC7000
F0003000
F0003800
F0003800
60003800
60001800
E0001C00
C0001C00
C0001C00
C0001C00
80001C00
80003800
00003800
00003800
00007000
00007000
0000E000
0001E000
0003C000
000F8000
003F0000
03FC0000
FFF00000
FFC00000
FFC00000
66C00000
66E00000
66FC0000
667F0000
670FC000
6601E000
E7FFF800
E7FFF800
ENDCHAR
ENDFONT
