STARTFONT 2.1
FONT -misc-dino1-medium-r-normal--64-640-75-75-c-320-iso10646-1
SIZE 64 75 75
FONTBOUNDINGBOX 32 64 0 -13
STARTPROPERTIES 2
FONT_ASCENT 51
FONT_DESCENT 13
ENDPROPERTIES
CHARS 8
STARTCHAR dino1_pgf_407bdfcf_f000001_r1_c1
ENCODING 1048922
SWIDTH 500 0
DWIDTH 32 0
BBX 32 64 0 -13
BITMAP
00000000
00000000
00000000
00000000
00000000
00000000
00000000
00000000
00000000
00000000
00000000
00000000
00000000
00000000
00000000
00000000
00000000
000079FC
0000CF8E
0003BE03
0003FE01
001FFF01
003E3E01
00603001
00403063
0060306C
003C1000
000E1800
00030C01
0001878F
0000C12D
0000783F
00001E1D
0000033F
000007FF
00000FBF
0003E9FF
0007F8FF
0007F87F
0007FC00
0007FC00
0007E700
0007E180
0003C0FF
000001FF
000001FF
000003FF
000001FF
000000FC
00000000
00000000
00000000
00000000
00000000
00000000
00000000
00000000
00000000
00000000
00000000
00000000
00000000
00000000
00000000
ENDCHAR
STARTCHAR dino1_pgf_407bdfcf_f000001_r1_c2
ENCODING 1048923
SWIDTH 500 0
DWIDTH 32 0
BBX 32 64 0 -13
BITMAP
00000000
00000000
00000000
00000000
00000000
00000000
00000000
00000000
00000000
00000000
00000000
00000000
00000000
00000000
00000000
00000000
00000000
00000000
00000000
00000000
00000000
803B0000
807F8000
80FFC000
86C64000
CF8F4000
CF8F4000
DF867800
FFC7FC00
7FFFFE00
FFBFFF00
FF0FFF00
FF07FF80
FF0FFF80
FF1FFF80
FF9FFF00
FF87FF00
FF8FFE00
FFF86000
7F900000
3F180000
06100000
3C100000
FC300000
06E00000
07800000
00000000
00000000
00000000
00000000
00000000
00000000
00000000
00000000
00000000
00000000
00000000
00000000
00000000
00000000
00000000
00000000
00000000
00000000
ENDCHAR
STARTCHAR dino1_pgf_407bdfcf_f000002_r1_c1
ENCODING 1048924
SWIDTH 500 0
DWIDTH 32 0
BBX 32 64 0 -13
BITMAP
00000000
00000000
00000000
00000000
00000000
00000000
00000000
00000000
00000000
00000000
00000000
00000000
00000000
00000000
00000000
00000000
00000000
000000F0
000061F8
0001F79C
0001FC06
000FFC02
00077C03
00173C03
007C2003
00406047
00C060C8
00C02000
00703001
001C1803
00060F8F
000387AF
0000C03F
00007E1D
00000F1F
000007FF
00000FFF
000009FF
000008FF
0000087F
00000C00
00001600
00003B00
00007FC0
0000FFFF
0000FFCF
00007FE3
00003FC1
00000000
00000000
00000000
00000000
00000000
00000000
00000000
00000000
00000000
00000000
00000000
00000000
00000000
00000000
00000000
00000000
ENDCHAR
STARTCHAR dino1_pgf_407bdfcf_f000002_r1_c2
ENCODING 1048925
SWIDTH 500 0
DWIDTH 32 0
BBX 32 64 0 -13
BITMAP
00000000
00000000
00000000
00000000
00000000
00000000
00000000
00000000
00000000
00000000
00000000
00000000
00000000
00000000
00000000
00000000
00000000
00000000
00000000
00000000
00320000
007F8000
00FFC000
00C64000
0F8F4000
8F8F4000
9F867800
FFC7FC00
FFFFFE00
DFFFFF00
7F0FFF00
FF07FF80
FF07FF80
FF0FFF80
FF9FFF00
FF8FFF00
FF87FE00
FFFDF800
FF800000
FF800000
7F000000
3F000000
1E000000
3F000000
FD000000
F1000000
83000000
FE000000
00000000
00000000
00000000
00000000
00000000
00000000
00000000
00000000
00000000
00000000
00000000
00000000
00000000
00000000
00000000
00000000
ENDCHAR
STARTCHAR dino1_pgf_407bdfcf_f000003_r1_c1
ENCODING 1048926
SWIDTH 500 0
DWIDTH 32 0
BBX 32 64 0 -13
BITMAP
00000000
00000000
00000000
00000000
00000000
00000000
00000000
00000000
00000000
00000000
00000000
00000000
00000000
00000000
00000000
000000C0
000001E0
000001F0
0000E7F0
0001FE18
0003F80C
0006F806
001E7C06
000E7806
003C400F
00784099
00C04091
01806001
00806003
00F8300F
001E1F8B
0007077F
0001C03D
00007E1F
00000F3F
00000FFF
0003E9FF
0007F8FF
0007F87F
0007FC00
0007FC00
0007E700
0007E180
0003C0FF
000001FF
000001FF
000003FF
000001FF
000000FC
00000000
00000000
00000000
00000000
00000000
00000000
00000000
00000000
00000000
00000000
00000000
00000000
00000000
00000000
00000000
ENDCHAR
STARTCHAR dino1_pgf_407bdfcf_f000003_r1_c2
ENCODING 1048927
SWIDTH 500 0
DWIDTH 32 0
BBX 32 64 0 -13
BITMAP
00000000
00000000
00000000
00000000
00000000
00000000
00000000
00000000
00000000
00000000
00000000
00000000
00000000
00000000
00000000
00000000
00000000
00000000
00000000
00000000
00000000
003B0000
007F8000
00FFC000
06C64000
0F8F4000
8F8F4000
1F867800
7FC7FC00
FFFFFE00
FFBFFF00
FF0FFF00
FF07FF80
FF0FFF80
FF1FFF80
FF9FFF00
FF87FF00
FF8FFE00
FFF86000
7F900000
3F180000
06100000
3C100000
FC300000
06E00000
07800000
00000000
00000000
00000000
00000000
00000000
00000000
00000000
00000000
00000000
00000000
00000000
00000000
00000000
00000000
00000000
00000000
00000000
00000000
ENDCHAR
STARTCHAR dino1_pgf_407bdfcf_f000004_r1_c1
ENCODING 1048928
SWIDTH 500 0
DWIDTH 32 0
BBX 32 64 0 -13
BITMAP
00000000
00000000
00000000
00000000
00000000
00000000
00000000
00000000
00000000
00000000
00000000
00000000
00000000
00000000
00000000
00000000
00000060
000000F0
000061F8
0001FF9C
0001FC06
000F7C02
00073E03
00173C03
007C2003
00406047
00C060C8
00C02000
00703001
001C1803
00060F8F
000387AF
0000C03F
00007E1D
00000F1F
000007FF
00000FFF
000009FF
000008FF
0000087F
00000C00
00001600
00003B00
00007FC0
0000FFFF
0000FFCF
00007FE3
00003FC1
00000000
00000000
00000000
00000000
00000000
00000000
00000000
00000000
00000000
00000000
00000000
00000000
00000000
00000000
00000000
00000000
ENDCHAR
STARTCHAR dino1_pgf_407bdfcf_f000004_r1_c2
ENCODING 1048929
SWIDTH 500 0
DWIDTH 32 0
BBX 32 64 0 -13
BITMAP
00000000
00000000
00000000
00000000
00000000
00000000
00000000
00000000
00000000
00000000
00000000
00000000
00000000
00000000
00000000
00000000
00000000
00000000
00000000
00000000
00320000
007F8000
00FFC000
00C64000
0F8F4000
8F8F4000
9F867800
FFC7FC00
FFFFFE00
DFFFFF00
7F0FFF00
FF07FF80
FF07FF80
FF0FFF80
FF9FFF00
FF8FFF00
FF87FE00
FFFDF800
FF800000
FF800000
7F000000
3F000000
1E000000
3F000000
FD000000
F1000000
83000000
FE000000
00000000
00000000
00000000
00000000
00000000
00000000
00000000
00000000
00000000
00000000
00000000
00000000
00000000
00000000
00000000
00000000
ENDCHAR
ENDFONT
