STARTFONT 2.1
FONT -misc-penquin1-medium-r-normal--64-640-75-75-c-320-iso10646-1
SIZE 64 75 75
FONTBOUNDINGBOX 32 64 0 -13
STARTPROPERTIES 2
FONT_ASCENT 51
FONT_DESCENT 13
ENDPROPERTIES
CHARS 10
STARTCHAR penquin1_pgf_c3c40a7a_f000001_r1_c1
ENCODING 1050647
SWIDTH 500 0
DWIDTH 32 0
BBX 32 64 0 -13
BITMAP
00000000
00000000
00000000
00000000
00000000
00000000
00000000
00000000
00000000
00000000
00000000
0000003F
000019FF
0001FFFF
0001FFE0
0001FFEF
0001FFFF
0000FFFF
00001FFF
00001FFF
00003FC0
00002F80
00000700
00004000
00004000
00004018
00007878
0000383C
00003F38
00003F98
00004F80
00000600
00004000
00004000
00002000
00001000
00001000
00003000
00002000
00002000
00006000
00004000
00004000
0000C000
00008000
00008000
00008000
00008000
00008000
00008000
00008000
00004000
00004001
00002003
00003003
00001803
00000C01
00000301
00001FFF
00007FFF
00007FFF
000007FF
00000000
00000000
ENDCHAR
STARTCHAR penquin1_pgf_c3c40a7a_f000001_r1_c2
ENCODING 1050648
SWIDTH 500 0
DWIDTH 32 0
BBX 32 64 0 -13
BITMAP
00000000
00000000
00000000
00000000
00000000
00000000
03CFC000
037E4000
03FF8000
01FF8000
01FF8000
FFFF8000
FFFF8000
FFFF8000
03FF8000
01EF8000
E007C000
F8038000
FC038000
FE030000
FF020000
7F800000
3F800000
3F800000
1FC00000
1FC00000
1FC00000
1FC00000
1FC00000
1F800000
3F800000
3F800000
7F000000
FF000000
FF000000
FF800000
7F800000
7FC00000
7FC00000
7FE00000
7FE00000
3FF00000
3FF00000
3FF00000
3FF00000
3FF00000
3FF80000
1DF80000
03F00000
03F00000
03F00000
03F00000
FFE00000
FFC00000
FFC00000
FF000000
FE000000
FC000000
FFF00000
FFFC0000
FFFC0000
FFE00000
00000000
00000000
ENDCHAR
STARTCHAR penquin1_pgf_c3c40a7a_f000002_r1_c1
ENCODING 1050649
SWIDTH 500 0
DWIDTH 32 0
BBX 32 64 0 -13
BITMAP
00000000
00000000
00000000
00000000
00000000
00000000
00000003
00000C7F
0000CFFF
0000FFFF
0000FFF0
0000FFFF
00007FFF
00000FFF
00000FFF
00000FFF
00001FE0
000017C0
00003380
00002000
00002000
00002000
00003C3C
00001C3C
00003F1C
00001FDC
000047C0
00004380
00004000
00002000
00002000
00001000
00000800
00000800
00001000
00001000
00002000
00002000
00002000
00004000
00004000
00004000
00004000
00004000
00000000
00000000
00004000
00004000
000041F8
000043FE
000023FF
000023FF
000011FF
000008FE
00000400
00000381
000000FF
0000003F
00000FFF
00003FFF
00003FFF
000007FF
00000000
00000000
ENDCHAR
STARTCHAR penquin1_pgf_c3c40a7a_f000002_r1_c2
ENCODING 1050650
SWIDTH 500 0
DWIDTH 32 0
BBX 32 64 0 -13
BITMAP
00000000
00FF0000
0180E000
00FFA000
00FFE000
00FFC000
F8FFC000
FFFFC000
FFFFC000
81FFC000
01FFC000
C0FFC000
F003C000
FC03C000
FE01C000
FF018000
FF830000
3F800000
3FC00000
1FC00000
1FC00000
0FC00000
0FE00000
0FE00000
0FC00000
1FC00000
1FC00000
1FC00000
3F800000
7F800000
7F000000
7F800000
7F800000
7FC00000
3FC00000
1FE00000
0FE00000
0FE00000
07F00000
07F00000
03F00000
03F00000
03F80000
01F80000
01F80000
01F80000
01F80000
01F00000
03F00000
03F00000
03E00000
07C00000
0FC00000
1F800000
7E000000
FC000000
FE000000
FE000000
FFE00000
FFF80000
FFF80000
FFC00000
00000000
00000000
ENDCHAR
STARTCHAR penquin1_pgf_c3c40a7a_f000003_r1_c1
ENCODING 1050651
SWIDTH 500 0
DWIDTH 32 0
BBX 32 64 0 -13
BITMAP
00000000
00000000
00000000
00000000
00000000
00000000
00000000
00000000
00000000
0000031F
00003FFF
00003FFF
00003FFE
00003FFF
00001FFF
000007FF
000007FF
000007FF
000006F8
00000470
00000400
00000400
00000400
00000703
00000707
00000747
00000FF7
000009F3
000008E0
00000800
00000800
00000800
00000400
00000200
00000600
00000400
00000800
00000800
00000800
00001000
00001000
00003000
00002000
00002000
00002000
00002000
00002000
00002000
00002000
00002000
00002000
00001000
00001800
00000800
00000F80
00000FE0
00000FF0
000007FF
00001FFF
00007FFF
00003FFF
000007FF
00000000
00000000
ENDCHAR
STARTCHAR penquin1_pgf_c3c40a7a_f000003_r1_c2
ENCODING 1050652
SWIDTH 500 0
DWIDTH 32 0
BBX 32 64 0 -13
BITMAP
00000000
00000000
00000000
00000000
007E0000
0060F800
007F8800
007FF000
007FF000
FF7FF000
FFFFF000
FFFFE000
007FE000
F07FE000
FE3FF000
FF01F000
FF81E000
FFC0E000
1FE0C000
0FE1C000
07F18000
07F00000
03F00000
03F80000
03F80000
83F80000
03F00000
07F00000
07F00000
07F00000
0FE00000
1FE00000
1FC00000
1FE00000
1FF00000
1FF80000
0FFC0000
07FE0000
07FE0000
03FF0000
03FF8000
01FFC000
01FFC000
01FFE000
01FFE000
00FDE000
00FC0000
00FC0000
01F80000
01F80000
01F80000
01F00000
03F00000
07E00000
0FC00000
3F800000
FE000000
FE000000
FFF00000
FFFC0000
FFF80000
FFC00000
00000000
00000000
ENDCHAR
STARTCHAR penquin1_pgf_c3c40a7a_f000004_r1_c1
ENCODING 1050653
SWIDTH 500 0
DWIDTH 32 0
BBX 32 64 0 -13
BITMAP
00000000
00000000
00000000
00000000
00000000
00000000
00000000
00000000
00000000
00000000
00000000
00000060
000007FF
000007FF
000007FF
000007FF
000003FF
000000FF
000000FF
000001FF
000001FF
0000027C
00000230
00000600
00000400
00000700
00000387
00000767
00000BF3
000008F1
00000870
00000800
00000800
00000400
00000200
00000200
00000400
00000400
00000800
00000800
00001000
00001000
00002000
00002000
00002000
00002000
00000000
00000000
00000000
00000000
00002000
00000000
00000000
00000000
00000800
00000400
0000030F
000001FF
00001FFF
00007FFF
00007FFF
000007FF
00000000
00000000
ENDCHAR
STARTCHAR penquin1_pgf_c3c40a7a_f000004_r1_c2
ENCODING 1050654
SWIDTH 500 0
DWIDTH 32 0
BBX 32 64 0 -13
BITMAP
00000000
00000000
00000000
00000000
00000000
00000000
00000000
00000000
0005F800
00078380
0007FD00
7C07FF00
FFE7FE00
FFFFFE00
FFFFFE00
000FFE00
FC0FFE00
FF04FE00
FF803E00
FFE03E00
1FF01C00
07F01800
03F83000
03F80000
01FC0000
01FC0000
81FC0000
81FC0000
81FC0000
83FC0000
03F80000
03F80000
07F00000
0FF00000
1FE00000
1FE00000
1FF00000
0FF00000
0FF80000
07F80000
03F80000
03FC0000
01FC0000
01FC0000
01FE0000
01FE0000
00FE0000
00FE0000
00FE0000
00FE0000
01FC0000
01F80000
01F80000
03F00000
07E00000
0FC00000
FF800000
FE000000
FFF00000
FFFC0000
FFFC0000
FFE00000
00000000
00000000
ENDCHAR
STARTCHAR penquin1_pgf_c3c40a7a_f000005_r1_c1
ENCODING 1050655
SWIDTH 500 0
DWIDTH 32 0
BBX 32 64 0 -13
BITMAP
00000000
00000000
00000000
00000000
00000000
00000000
00000101
0000033F
00003FFF
00003FFF
00003FFE
00003FFF
000007FF
000007FF
000007FF
000007FE
000006F8
00000470
00000400
00000400
00000400
00000703
00000707
00000747
00000FF7
00000BF3
000008E0
00000840
00000800
00000800
00000400
00000200
00000600
00000400
00000C00
00000800
00000800
00001000
00001000
00001000
00002000
00002000
00002000
00002000
00002000
00002000
00002000
00002000
00002000
00003000
00001000
00001800
00007800
00007C00
00003F00
00001FE1
0000003F
0000001F
00000FFF
00003FFF
00003FFF
000007FF
00000000
00000000
ENDCHAR
STARTCHAR penquin1_pgf_c3c40a7a_f000005_r1_c2
ENCODING 1050656
SWIDTH 500 0
DWIDTH 32 0
BBX 32 64 0 -13
BITMAP
00000000
00000000
007FC000
00603800
007FC800
007FF000
F83FF000
FFFFF000
FFFFE000
FFFFE000
007FE000
F87FF000
FE03F000
FF01F000
FFC0E000
3FC0E000
1FE0C000
0FF18000
07F00000
07F00000
03F00000
03F80000
03F80000
83F80000
03F00000
07F00000
07F00000
07F00000
0FE00000
1FE00000
1FC00000
1FC00000
1FE00000
1FE00000
1FF00000
3FF00000
3FF00000
3FF80000
7FF80000
7FF80000
7FF80000
FFF80000
FDFC0000
F9FC0000
F8FC0000
60FC0000
00F80000
01F80000
01F80000
01F80000
03F00000
03E00000
07E00000
0FC00000
3F000000
FF000000
FF800000
FF000000
FFE00000
FFF80000
FFF80000
FFC00000
00000000
00000000
ENDCHAR
ENDFONT
