STARTFONT 2.1
FONT -misc-duck-medium-r-normal--64-640-75-75-c-320-iso10646-1
SIZE 64 75 75
FONTBOUNDINGBOX 32 64 0 -13
STARTPROPERTIES 2
FONT_ASCENT 51
FONT_DESCENT 13
ENDPROPERTIES
CHARS 40
STARTCHAR duck_pgf_af5e4607_f000001_r1_c1
ENCODING 1052916
SWIDTH 500 0
DWIDTH 32 0
BBX 32 64 0 -13
BITMAP
00000000
00000000
00000000
00000000
00000000
00000000
00000000
00000000
00003000
0003F000
000FF800
003FF801
00FFF803
03FFFC0F
07FFFC1E
03FFFE38
03FF87F0
01FE01C0
01F8E180
03E0E380
0FC0E300
1F806600
19800600
01CF0600
01FFC000
00F8E000
01E06000
0780E000
0F01C000
0C078000
181F0000
1FFC0000
0FFC0000
001E0000
000F0000
0003C000
0001E000
00007000
00003800
00001FFF
F8001DFF
DF001FFF
C3C00EFF
E1C00F7F
3F8007BB
0C0003FF
000001FF
000000F7
0000007F
0000003F
0000001F
00000007
00000007
00000007
00000007
0000007F
000003FF
00000FFF
00003FFF
001E7FFF
0037FFFF
003FFFFF
001E3FE0
00000000
ENDCHAR
STARTCHAR duck_pgf_af5e4607_f000001_r1_c2
ENCODING 1052917
SWIDTH 500 0
DWIDTH 32 0
BBX 32 64 0 -13
BITMAP
00000000
00000000
00000000
00000000
00000000
00000000
00007000
00003800
00007C00
07E07600
7FFE7700
FFFFEB80
E007C780
800185C0
000007C0
000007C0
000006C0
000006C0
000006C0
000006C0
000007C0
000007C0
000005C0
00000FE0
00000F70
00000F70
00000FF0
00001FB8
00001FB8
00003FB8
00003FF8
00007FFC
0000FFFC
0001FFFC
0003FFFC
0007FFF8
001FFFB8
00FFFFB8
0FFFFFF8
FFFFFF70
FFFFFFF0
FFFFFEE0
DFFFFDE0
EFFFFBC0
F7FFF780
FBFFCF00
FBFF3E00
FFF9FC00
F81FF000
FFFFE000
FFFFE000
FFFFE000
F81FE000
F81FE000
F81FE000
F81FFC00
F81FFF80
F81FFFE0
F81FFFF0
F81FFFF8
F81FFFFC
F81FFFFC
000FFFF8
00000000
ENDCHAR
STARTCHAR duck_pgf_af5e4607_f000002_r1_c1
ENCODING 1052918
SWIDTH 500 0
DWIDTH 32 0
BBX 32 64 0 -13
BITMAP
00000000
00000000
00000000
00000000
00000000
00000000
00000000
00000000
00003000
0003F000
000FF800
003FF800
00FFF800
03FFFC00
07FFFC01
03FFFE07
03FF879F
01FE01F8
01F8E0F0
03E0E1C0
0FC0E380
1F806300
19800300
01CF0600
01FFC200
00F8E000
01E06000
0780E000
0F01C000
0C078000
181F0000
1FFC0000
0FFC0000
001E0000
000F2000
0003F000
0001F000
00007000
00003000
00003800
00003B00
00001FFF
08001DFF
3FC01DFF
60C00EFF
3F800FFF
1F00077E
000003B7
000003D7
000001E7
000000FF
0000007F
0000003F
00000007
00000007
0000007F
000003FF
00000FFF
00003FFF
00007FFF
0000FFFF
0000FFFF
00003FF0
00000000
ENDCHAR
STARTCHAR duck_pgf_af5e4607_f000002_r1_c2
ENCODING 1052919
SWIDTH 500 0
DWIDTH 32 0
BBX 32 64 0 -13
BITMAP
00000000
00038000
0007E000
00047000
00061800
00030C00
0001C400
0000E400
00003C00
00001C00
00000800
00000000
000001C0
3FFC01E0
FFFF81F0
E00FC1F8
0001E3B8
0000F3BC
00007F5C
00003E5C
00001C5C
0000187C
000000B8
000000B8
000000F8
00000170
000001F0
000002E0
000003F0
00000770
00000770
00000FF8
00001FF8
00003FB8
0000FFB8
0003FFB8
0007FFB8
001FFFB8
007FFFB8
01FFFFB8
1FFFFFF0
FFFFFF70
FFFFFF70
FFFFFEE0
FFFFFFE0
FFFFFDC0
0FFFFB80
F7FFEF80
FBFFDF00
FBFE7C00
FB03F800
FFFFE000
FFFFE000
FFFFE000
F81FE000
F81FFC00
F81FFF80
F81FFFE0
F81FFFF0
F81FFFF8
F81FFFFC
F81FFFFC
000FFFF8
00000000
ENDCHAR
STARTCHAR duck_pgf_af5e4607_f000003_r1_c1
ENCODING 1052920
SWIDTH 500 0
DWIDTH 32 0
BBX 32 64 0 -13
BITMAP
00000000
00000000
00000000
00000000
00000000
00000000
00000000
00000000
00003000
0003F000
000FF800
003FF800
00FFF800
03FFFC00
07FFFC00
03FFFE00
03FF8780
01FE01C0
01F8E0C3
03E0E07F
0FC0E07E
1F8060F0
198001C0
01CF0380
01FFC300
00F8E200
01E06000
0780E000
0F01C000
0C078000
181F0000
1FFC0000
0FFC0000
001E2000
000F6000
0003F000
0001F000
00007000
00003000
00003000
00003800
00003C00
00003A00
00003B00
00001F80
00001DE0
00001FF8
03E00EFF
0FE00F7F
0DC007BF
078003CF
000001F1
000000FF
0000003F
0000000F
0000007F
000003FF
00000FFF
00003FFF
00007FFF
0000FFFF
0000FFFF
00003FF0
00000000
ENDCHAR
STARTCHAR duck_pgf_af5e4607_f000003_r1_c2
ENCODING 1052921
SWIDTH 500 0
DWIDTH 32 0
BBX 32 64 0 -13
BITMAP
00000000
00000000
00006000
0000F000
00019800
0000CC00
00006C00
00006600
00003600
00003400
00003C00
00003800
00003000
00000000
00000000
00000000
00000000
00000000
FFC00000
FFFE0000
00FFC000
0007F000
0000F800
00003C00
00000E00
00000700
00000380
000003C0
000001C0
000000EC
000000FC
000000FC
000001FC
000007EC
0000070C
0000001C
0000001C
0000001C
0000001C
0000007C
000000B8
000001B8
00000170
000002F0
000005E0
00001FC0
00003780
0000F700
FE7FEF00
FFFFDE00
FFFF3C00
FFFCF800
0007F000
FFFFE000
FFFFE000
FFFFFC00
F81FFF80
F81FFFE0
F81FFFF0
F81FFFF8
F81FFFFC
F81FFFFC
000FFFF8
00000000
ENDCHAR
STARTCHAR duck_pgf_af5e4607_f000004_r1_c1
ENCODING 1052922
SWIDTH 500 0
DWIDTH 32 0
BBX 32 64 0 -13
BITMAP
00000000
00000000
00000000
00000000
00000000
00000000
00000000
00000000
00003000
0003F000
000FF800
003FF800
00FFF800
03FFFC00
07FFFC00
03FFFE00
03FF8780
01FE01C7
01F8E0FF
03E0E07C
0FC0E0F0
1F8061C0
19800180
01CF0100
01FFC000
00F8E000
01E06000
0780E000
0F01C000
0C078000
181F0000
1FFC0000
0FFC0000
001E6000
000F6000
0003E000
0001E000
0000E000
00006000
00006000
00006000
00006000
00006000
00007800
00007C00
00007400
00007700
00007780
00003BC0
00003BF0
00F81DFC
01981E7F
03300F9F
03E007F1
01C001FF
000000FF
000003FF
00000FFF
00003FFF
00007FFF
0000FFFF
0000FFFF
00003FF0
00000000
ENDCHAR
STARTCHAR duck_pgf_af5e4607_f000004_r1_c2
ENCODING 1052923
SWIDTH 500 0
DWIDTH 32 0
BBX 32 64 0 -13
BITMAP
00000000
00000000
00000000
00000000
00000000
00000000
00000000
00001800
00003C00
0000E400
000FCC00
000E0C00
0007F800
0000E000
00000000
00000000
00000000
FF000000
FFE00000
03FC0000
003E0000
000F8000
0003C000
0000E000
00007000
00003800
00001C00
00001E00
00000E00
00000700
00000700
00000380
00000380
000003C0
000001C0
000001C0
000001C0
0000C1C0
0003E1C0
001FE1C0
001EC1C0
0000C1C0
0000C1C0
0001C3C0
00018380
00038380
00038780
000F0F00
007E3F00
007CBE00
00037C00
000CF800
FFF3E000
FC1FE000
FFFFE000
FFFFFC00
FFFFFF80
F81FFFE0
F81FFFF0
F81FFFF8
F81FFFFC
F81FFFFC
000FFFF8
00000000
ENDCHAR
STARTCHAR duck_pgf_af5e4607_f000005_r1_c1
ENCODING 1052924
SWIDTH 500 0
DWIDTH 32 0
BBX 32 64 0 -13
BITMAP
00000000
00000000
00000000
00000000
00000000
00000000
00000000
00000000
00003000
0003F000
000FF800
003FF800
00FFF800
03FFFC00
07FFFC00
03FFFE01
03FF878F
01FE01FF
01F8E0F8
03E0E1E0
0FC0E180
1F806000
19800000
01CF0000
01FFC000
00F8E000
01E06000
0780E000
0F01C000
0C078000
181F0000
1FFC2000
0FFCE000
001EC000
000FC000
00038000
00038000
00030000
00070000
00070000
00060000
00060000
000E0000
000E0000
000E0000
000E0000
000E0000
00070000
00070000
0007C000
0007A000
0003D000
007DE77F
01FCF9FF
018CFF3F
01F83FE0
00F01FFF
00000FFF
00003FFF
00007FFF
0000FFFF
0000FFFF
00003FF0
00000000
ENDCHAR
STARTCHAR duck_pgf_af5e4607_f000005_r1_c2
ENCODING 1052925
SWIDTH 500 0
DWIDTH 32 0
BBX 32 64 0 -13
BITMAP
00000000
00000000
00000000
00000000
00000000
00000000
00000000
00000000
00000000
00000000
003C3000
003FF800
00319800
00301800
001FF000
FF87C000
FFF00000
83FC0000
003E0000
000F0000
00038000
0001C000
0000E000
00007000
00003800
00003C00
00001C00
00001E00
00000E00
00000F00
00001700
00001700
00001F80
00001F80
00001F80
00001B80
00003F80
00003F80
00007780
00007780
0000F700
0001FF00
0003EF00
0003FE00
0007DE00
000FBC00
001FFC00
007F7800
00FEF000
07FDE000
1FF7E000
FFEFE000
FFBFE000
FE7FE000
F3FFE000
3FFFFC00
FFDFFF80
FF1FFFE0
F81FFFF0
F81FFFF8
F81FFFFC
F81FFFFC
000FFFF8
00000000
ENDCHAR
STARTCHAR duck_pgf_af5e4607_f000006_r1_c1
ENCODING 1052926
SWIDTH 500 0
DWIDTH 32 0
BBX 32 64 0 -13
BITMAP
00000000
00000000
00000000
00000000
00000000
00000000
00000000
00000000
00003000
0003F000
000FF000
003FF800
00FFF800
03FFFC00
07FFFC00
03FFFE07
03FFC7FF
01FE01FF
01F8E7E0
03E0E600
0FC0F000
1F807000
1981E000
01CF8000
01FF0000
00FE0000
01FC0000
07B80000
0E380000
0C700000
18700000
1FF00000
0FE00000
00E00000
00600000
00E00000
00E00000
00E00000
00E00000
00600000
00700000
00700000
00700000
00380003
003E001E
003DF1F7
001EFFFF
000F6FFF
000FB7FF
0007DFFF
0003F7FF
0001F9FF
00007E3F
00003FE0
00000FFF
003F03FF
007B03FF
00C60FFF
00FC3FFF
00707FFF
0000FFFF
0000FFFF
00003FE0
00000000
ENDCHAR
STARTCHAR duck_pgf_af5e4607_f000006_r1_c2
ENCODING 1052927
SWIDTH 500 0
DWIDTH 32 0
BBX 32 64 0 -13
BITMAP
00000000
00000000
00000000
00000000
00000000
00000000
00000000
00000000
00000000
00000000
00000000
00000000
00300000
003C0000
003F8000
FFB3E000
FFF83000
BFFE3000
00FFE000
003F0000
000F8000
00078000
0003C000
0001E000
0000F000
00007000
00007800
00003C00
00003C00
0000DE00
0000DE00
0001DE00
0003EF00
0007EF00
000FEF00
003FAF00
007F6F00
00FEEF00
01FFEF00
07F7EF00
0FFFEE00
3FFFEE00
DF7FDE00
FFFFDC00
FFFE3C00
FFF9BC00
FFF7F800
FFEFF000
FFDFF000
FFFFE000
FFDFE000
FFDFE000
FF1FE000
00FFE000
FFFFE000
FFFFFC00
FF9FFF80
F81FFFE0
F81FFFF0
F81FFFF8
F81FFFFC
F81FFFFC
000FFFF8
00000000
ENDCHAR
STARTCHAR duck_pgf_af5e4607_f000007_r1_c1
ENCODING 1052928
SWIDTH 500 0
DWIDTH 32 0
BBX 32 64 0 -13
BITMAP
00000000
00000000
00000000
00000000
00000000
00000000
00000000
00000000
00003000
0003F000
000FF000
003FF800
00FFF800
03FFFC00
07FFFC7F
03FFFFFF
03FF8FC0
01FE3E00
01F8F800
03E1E000
0FC38000
1F870000
198E0000
01DC0000
01F80000
00F80000
01F00000
07F00000
0E600003
0CE0000F
18E0001F
1FE0007B
0FE001FF
00E003FF
00E007FF
00E00BFF
00601FFF
00703FFF
00707FFF
0030FFFF
0030FFFF
0031FFFF
0031FFFF
0036FFEF
00377FFF
003FBFFF
003FDFFF
001DEFFF
001CF7FF
000C79FF
00003E7F
00001FC0
000007FF
000001FF
0000003F
0000007F
000003FF
00000FFF
00003FFF
00007FFF
0000FFFF
0000FFFF
00003FE0
00000000
ENDCHAR
STARTCHAR duck_pgf_af5e4607_f000007_r1_c2
ENCODING 1052929
SWIDTH 500 0
DWIDTH 32 0
BBX 32 64 0 -13
BITMAP
00000000
00000000
00000000
00000000
00000000
00000000
00000000
00000000
00000000
00000000
00000000
00000000
00000000
00000000
F8000000
FF200000
0FF80000
03FC0000
00E7F000
0033F000
00303000
001C7000
000FC000
0001C000
0000E000
0000E000
0FFC7000
7DFF7000
FFFF7000
FFFFB800
FFFFB800
FFBFB800
FFFFDC00
FFFFDC00
FFFFDC00
FFFFDC00
FFFFDC00
FFFFDC00
FFFFDC00
FFFFDC00
FFE1DC00
FF9EB800
FF7F3800
FEFFB800
FEFFF000
FEFFF000
FF7FE000
FF7FE000
FFBFE000
FFBFE000
FE3FE000
01FFE000
FFFFE000
FFDFE000
FE1FE000
F81FFC00
F81FFF80
F81FFFE0
F81FFFF0
F81FFFF8
F81FFFFC
F81FFFFC
000FFFF8
00000000
ENDCHAR
STARTCHAR duck_pgf_af5e4607_f000008_r1_c1
ENCODING 1052930
SWIDTH 500 0
DWIDTH 32 0
BBX 32 64 0 -13
BITMAP
00000000
00000000
00000000
00000000
00000000
00000000
0000000F
0000007F
000031FF
0003F3F0
000FFF80
003FFE00
00FFFC00
03FFF800
07FFF000
03FFE000
03FFC000
01FF8000
01FF0000
03E70000
0FC60000
1F8E0000
198C0000
01DC0001
01FC003F
00F801FF
01F807FF
07B81FFF
0E303FFF
0C70DFFF
1873DFFF
1FF7BFFF
0FFF7FFF
007CFFFF
003DFFFF
002EFFFF
01CEFFFF
03CEFFFF
06477FFF
06C77FFF
0CC7BFFF
0C83FFFF
0D83DFFF
0D81EFFF
0C80F7FF
06C0FBFF
07807CFF
01003F1F
00001FE1
000007FF
000001FF
0000007F
00000007
00000007
00000007
0000007F
000003FF
00000FFF
00003FFF
00007FFF
0000FFFF
0000FFFF
00003FE0
00000000
ENDCHAR
STARTCHAR duck_pgf_af5e4607_f000008_r1_c2
ENCODING 1052931
SWIDTH 500 0
DWIDTH 32 0
BBX 32 64 0 -13
BITMAP
00000000
00000000
00000000
00000000
00000000
00000000
FF000000
FFE00000
FFF80000
01FE0000
003F0000
000F8000
0007C000
0001E000
0001E000
0000F000
00007800
00007800
003C3C00
001FFC00
0019FC00
000C0E00
00060E00
FE13FE00
FFFDFF00
FFFE0700
FFFFF700
FFFFF700
FFFFF700
FFFFF700
FFFFF700
FFFFF700
FFFFF700
FFFFF700
FFFFF700
FFFFF700
FFFFFE00
FFFFEE00
FFF0EE00
FFCF6E00
FFBF9C00
FF7F9C00
FF7FF800
FF7FF800
FFBFF000
FFBFF000
FFDFE000
FFDFE000
FF1FE000
01FFE000
FFFFE000
FFFFE000
FF1FE000
F81FE000
F81FE000
F81FFC00
F81FFF80
F81FFFE0
F81FFFF0
F81FFFF8
F81FFFFC
F81FFFFC
000FFFF8
00000000
ENDCHAR
STARTCHAR duck_pgf_af5e4607_f000009_r1_c1
ENCODING 1052932
SWIDTH 500 0
DWIDTH 32 0
BBX 32 64 0 -13
BITMAP
00000000
00000000
00000000
00000000
000003FF
00001FFF
00007E07
0001F000
0003C000
00070000
000FF1FF
003FFF7F
00FFFFBF
03FFFFDF
07FFFDDF
03FFFCDF
03FF9B3F
01FE3BFF
01F8F3FF
03E0F3FF
0FC0F3FF
1F8073FF
198033FF
01CF33FF
01FFF3FF
00F8F3FF
01E073FF
0780F3FF
0E01FBFF
0C079BFF
181F03FF
1FFC03FF
0FFC03FF
001E01FF
000F01FF
0003C1FF
0001E1FF
0000E0FE
000070FD
000070FD
000038FB
04001C7B
07001E7F
07800E77
04C607B7
067F03D7
033B01F7
038300FF
01FE003F
0078001F
00000007
00000007
00000007
00000007
00000007
0000007F
000003FF
00000FFF
00003FFF
00007FFF
0000FFFF
0000FFFF
00003FE0
00000000
ENDCHAR
STARTCHAR duck_pgf_af5e4607_f000009_r1_c2
ENCODING 1052933
SWIDTH 500 0
DWIDTH 32 0
BBX 32 64 0 -13
BITMAP
00000000
00000000
00000000
7FF80000
FFFE0000
E01F8000
0003E000
0000F000
00007800
00003C00
FF001E00
FFF00E00
FFFC0700
FFFF0380
FFFF8180
FFFFE1C0
FFFFF0E0
FFFFF8E0
FFFFFC60
FFE3FE70
FFDEFF70
FFDF1F70
FFDBF370
FFFCFFB0
FFEC0EB0
FFF706B8
FFFBFEB8
FFFCF9B8
FFFF07B8
FFFFFFB0
FFFFFFF0
FFFFFFF0
FFFFFF70
FFFFFF70
FFFFFF70
FFFFFF70
0FFFFF70
F7FDFFE0
FBF73EE0
FBEFFEE0
FFEFEEE0
FFFFEDC0
FFFFFDC0
FBFFFB80
FBFFFB80
FBFFF700
FBFFEF00
FBFFFE00
FBFFFC00
F81FF800
FFFFE000
FFFFE000
FFFFE000
F81FE000
F81FE000
F81FFC00
F81FFF80
F81FFFE0
F81FFFF0
F81FFFF8
F81FFFFC
F81FFFFC
000FFFF0
00000000
ENDCHAR
STARTCHAR duck_pgf_af5e4607_f000010_r1_c1
ENCODING 1052934
SWIDTH 500 0
DWIDTH 32 0
BBX 32 64 0 -13
BITMAP
00000000
00000000
00000000
00000000
00000000
00000000
00000000
00000000
00003000
0003F003
000FF007
003FF81F
00FFF83C
03FFFC78
07FFFCF0
03FFFFC0
03FFC7C0
01FE0380
01F8E700
03E0E600
0FC0E601
1F806E07
19800C0F
01CF0C1F
01FFCC3F
00F8EC5F
01E06C7F
0780ECFF
0E01C5FF
0C0781FF
181F01FF
1FFC03FF
0FFC03FF
001E03FF
000F07FF
0003C7FF
0001E7FF
0000E7FE
000077FD
000077FD
00003BFB
0001DDFB
0003DEFF
0006CF77
001CC7B7
00F983D7
00FF01F7
007C00FF
0000003F
0000001F
00000007
00000007
00000007
00000007
00000007
0000007F
000003FF
00000FFF
00003FFF
00007FFF
0000FFFF
0000FFFF
00003FE0
00000000
ENDCHAR
STARTCHAR duck_pgf_af5e4607_f000010_r1_c2
ENCODING 1052935
SWIDTH 500 0
DWIDTH 32 0
BBX 32 64 0 -13
BITMAP
00000000
00000000
1FC00000
1FF80000
0FFE0000
073F0000
0F8F8000
7F83C000
FF85C000
F1C7F000
81C27800
0083BC00
0001CE00
0001F700
0001FB80
0003FBC0
00FFFDC0
07FFFEE0
1FFFFEE0
FFFFFF70
FFFFFF70
FFFFFFB8
FFF8FFB8
FFF73FB8
FFEFCFB8
FFF7F3D8
FFF73DDC
FFFB8EDC
FFFDFEDC
FFFEFDD8
FFFF03F8
FFFFFFB8
FFFFFFB8
FFFFFFB8
FFFFFFB8
FFFFFFB8
0FFFFFB8
F7FFFF70
FBFFFF70
FBFFFF70
FFF9FEE0
FFF71EE0
FFEFEFE0
FBDFEDC0
FBDFEBC0
FBDFF780
FBDFEF00
FBDFFE00
FBFFFC00
F81FF800
FFFFE000
FFFFE000
FFFFE000
F81FE000
F81FE000
F81FFC00
F81FFF80
F81FFFE0
F81FFFF0
F81FFFF8
F81FFFFC
F81FFFFC
000FFFF0
00000000
ENDCHAR
STARTCHAR duck_pgf_af5e4607_f000011_r1_c1
ENCODING 1052936
SWIDTH 500 0
DWIDTH 32 0
BBX 32 64 0 -13
BITMAP
00000000
00000000
00000000
00000000
00000000
00000000
00000000
00000000
00007000
0003F000
000FF800
003FF801
00FFF803
03FFFC0F
07FFFC1E
03FFFE38
03FFC7F0
01FE01C0
01F8E180
07E0E380
1FC0E300
1F806600
19800600
01CF0600
01FFC000
00F8E000
01E06000
0780E000
0E01C000
0C078000
181F0000
1FFC0000
0FFC0000
001E0000
000F0000
0003C000
0001E000
00007000
00003800
00001A00
00001C00
00009C00
0000CE80
0001EF01
00036783
001E63C3
007CC1E7
00E380F7
00FF007F
003C003F
0000001F
00000007
00000007
00000007
00000007
0000007F
000003FF
00000FFF
00003FFF
00007FFF
0000FFFF
0000FFFF
00003FE0
00000000
ENDCHAR
STARTCHAR duck_pgf_af5e4607_f000011_r1_c2
ENCODING 1052937
SWIDTH 500 0
DWIDTH 32 0
BBX 32 64 0 -13
BITMAP
00000000
00000000
00000000
00000000
00000000
00000000
00007000
00007800
00007C00
07F07600
7FFE7700
FFFFEB80
F007C380
800185C0
000005C0
000000C0
000000C0
000000C0
000000C0
000000C0
000000C0
000005C0
000005E0
000000E0
00000070
00000170
00000870
0007C038
0007F838
00023C38
00030C38
0001FC1C
0000F01C
0000001C
0000001C
00000038
00000038
000000B8
00000038
00000070
00000070
000002E0
800005E0
E0000BC0
F0000780
F8000F00
F8003E00
F800FC00
F80FF000
FFFFE000
FFFFE000
FFFFE000
F81FE000
F81FE000
F81FE000
F81FFC00
F81FFF80
F81FFFE0
F81FFFF0
F81FFFF8
F81FFFFC
F81FFFFC
000FFFF8
00000000
ENDCHAR
STARTCHAR duck_pgf_af5e4607_f000012_r1_c1
ENCODING 1052938
SWIDTH 500 0
DWIDTH 32 0
BBX 32 64 0 -13
BITMAP
00000000
00000000
00000000
00000000
00000000
00000000
00000000
00000000
00007000
0003F000
000FF800
003FF800
00FFF800
03FFFC00
07FFFC01
03FFFE07
03FFC79F
01FE01FC
01F8E0F0
07E0E1C0
1FC0E380
1F806300
19800300
01CF0600
01FFC200
00F8E000
01E06000
0780E000
0E01C000
0C078000
181F0000
1FFC0000
0FFC0000
001E0000
000F2000
0003F000
0001F000
00007000
00003000
00003800
00003A00
00001800
00001C00
00001C00
00000E00
0001CE00
0007C706
01FEC3A7
01B183D7
01C701E7
00FE00F7
0038007F
0000003F
00000007
00000007
0000007F
000003FF
00000FFF
00003FFF
00007FFF
0000FFFF
0000FFFF
00007FF0
00000000
ENDCHAR
STARTCHAR duck_pgf_af5e4607_f000012_r1_c2
ENCODING 1052939
SWIDTH 500 0
DWIDTH 32 0
BBX 32 64 0 -13
BITMAP
00000000
00000000
00000000
00000000
00000000
00000000
00000000
00000000
00000000
00000000
00000000
00000000
000001C0
3FFC01E0
FFFF81F0
E01FC1F8
0001E3B8
0000F39C
00007F5C
00003E5C
00001C1C
0000181C
00000038
000000B8
00000078
00000070
000000F0
000000E0
00030070
0003C070
0003F070
00033878
00019838
0000F838
00006038
00010038
00000038
00000038
00000038
00000038
00000038
00000070
00000070
000000E0
000000E0
000001C0
00000380
F0000780
F8001F00
FA007C00
F803F800
FBFFE000
FFFFE000
FFFFE000
F81FE000
F81FFC00
F81FFF80
F81FFFE0
F81FFFF0
F81FFFF8
F81FFFFC
F81FFFFC
000FFFF8
00000000
ENDCHAR
STARTCHAR duck_pgf_af5e4607_f000013_r1_c1
ENCODING 1052940
SWIDTH 500 0
DWIDTH 32 0
BBX 32 64 0 -13
BITMAP
00000000
00000000
00000000
00000000
00000000
00000000
00000000
00000000
00007000
0003F000
000FF800
003FF800
00FFF800
03FFFC00
07FFFC00
03FFFE00
03FFC780
01FE01C0
01F8E0C3
07E0E07F
1FC0E07E
1F8060F0
198001C0
01CF0380
01FFC300
00F8E200
01E06000
0780E000
0E01C000
0C078000
181F0000
1FFC0000
0FFC0000
001E2000
000F6000
0003F000
0001F000
00007000
00003000
00003000
00003800
00003800
00003800
00003800
00001C00
00001C00
00001C00
1E000E80
1FC00F40
19F00780
0C1C03C0
078C01F0
01F800FE
0000003F
0000000F
0000007F
000003FF
00000FFF
00003FFF
00007FFF
0000FFFF
0000FFFF
00007FF0
00000000
ENDCHAR
STARTCHAR duck_pgf_af5e4607_f000013_r1_c2
ENCODING 1052941
SWIDTH 500 0
DWIDTH 32 0
BBX 32 64 0 -13
BITMAP
00000000
00000000
00000000
00000000
00000000
00000000
00000000
00000000
00000000
00000000
00000000
00000000
00000000
00000000
00000000
00000000
00000000
00000000
FFE00000
FFFE0000
00FFC000
0007F000
0000F800
00003C00
00000E00
00000700
00000380
000003C0
000001C0
000000EC
000000FC
000300FC
000381FC
0003C7EC
0003670C
0001E00C
0000C01C
0000001C
0000001C
0000003C
00000038
00000038
00000178
000002F0
000001E0
000007C0
00000780
00000700
00000F00
00001E00
00003C00
0000F800
0007F000
FFFFE000
FFFFE000
FFFFFC00
F81FFF80
F81FFFE0
F81FFFF0
F81FFFF8
F81FFFFC
F81FFFFC
000FFFF8
00000000
ENDCHAR
STARTCHAR duck_pgf_af5e4607_f000014_r1_c1
ENCODING 1052942
SWIDTH 500 0
DWIDTH 32 0
BBX 32 64 0 -13
BITMAP
00000000
00000000
00000000
00000000
00000000
00000000
00000000
00000000
00007000
0003F000
000FF800
003FF800
00FFF800
03FFFC00
07FFFC00
03FFFE00
03FFC780
01FE01C7
01F8E0FF
07E0E07C
1FC0E0F0
1F8061C0
19800180
01CF0100
01FFC000
00F8E000
01E06000
0780E000
0E01C000
0C078000
181F0000
1FFC0000
0FFC0000
001E6000
000F6000
0003E000
0001E000
0000E000
00006000
00006000
0000E000
0000E000
0000E000
00006000
00007000
00007000
00007000
00007000
38003800
7C003800
67001C00
33801E00
1CC00F80
0FC007E0
000001FF
000000FF
000003FF
00000FFF
00003FFF
00007FFF
0000FFFF
0000FFFF
00007FF0
00000000
ENDCHAR
STARTCHAR duck_pgf_af5e4607_f000014_r1_c2
ENCODING 1052943
SWIDTH 500 0
DWIDTH 32 0
BBX 32 64 0 -13
BITMAP
00000000
00000000
00000000
00000000
00000000
00000000
00000000
00000000
00000000
00000000
00000000
00000000
00000000
00000000
00000000
00000000
00000000
FF000000
FFE00000
03FC0000
003E0000
000F8000
0003C000
0000E000
00007000
00003800
00001C00
00001E00
00000E00
00000700
00000700
00000380
00000380
000003C0
000001C0
000001C0
000001C0
0000C1C0
0003E1C0
001FE1C0
001EC1C0
0000C1C0
0000C1C0
0001C3C0
00018380
00038380
00038780
000F0F00
007E0F00
007C1E00
00007C00
0004F800
0043F000
001FE000
87FFE000
FFFFFC00
FFFFFF80
F81FFFE0
F81FFFF0
F81FFFF8
F81FFFFC
F81FFFFC
000FFFF8
00000000
ENDCHAR
STARTCHAR duck_pgf_af5e4607_f000015_r1_c1
ENCODING 1052944
SWIDTH 500 0
DWIDTH 32 0
BBX 32 64 0 -13
BITMAP
00000000
00000000
00000000
00000000
00000000
00000000
00000000
00000000
00007000
0003F000
000FF800
003FF800
00FFF800
03FFFC00
07FFFC00
03FFFE01
03FFC78F
01FE01FF
01F8E0F8
07E0E1E0
1FC0E180
1F806000
19800000
01CF0000
01FFC000
00F8E000
01E06000
0780E000
0E01C000
0C078000
181F0000
1FFC2000
0FFCE000
001EC000
000FC000
00038000
00038000
00030000
00070000
00070000
00060000
00060000
000E0000
000E0000
000E0000
000E0000
000E0000
00070000
00070000
00078000
10078000
3C03D000
3701E400
33E1F800
18E0FE00
0FE03FE0
03801FFF
00000FFF
00003FFF
00007FFF
0000FFFF
0000FFFF
00007FF0
00000000
ENDCHAR
STARTCHAR duck_pgf_af5e4607_f000015_r1_c2
ENCODING 1052945
SWIDTH 500 0
DWIDTH 32 0
BBX 32 64 0 -13
BITMAP
00000000
00000000
00000000
00000000
00000000
00000000
00000000
00000000
00000000
00000000
00000000
00000000
00000000
00000000
00000000
FF800000
FFF00000
83FC0000
003E0000
000F0000
00038000
0001C000
0000E000
00007000
00003800
00003C00
00001C00
00001E00
00000E00
00000F00
00000700
00000780
00000780
00000380
00000380
00000380
00000380
00000780
00000780
00000780
00000700
00000F00
00000F00
00000E00
00001E00
00003C00
00003C00
00007800
0000F000
0001E000
0003E000
000FE000
001FE000
007FE000
03FFE000
1FFFFC00
FFDFFF80
FF1FFFE0
F81FFFF0
F81FFFF8
F81FFFFC
F81FFFFC
000FFFF8
00000000
ENDCHAR
STARTCHAR duck_pgf_af5e4607_f000016_r1_c1
ENCODING 1052946
SWIDTH 500 0
DWIDTH 32 0
BBX 32 64 0 -13
BITMAP
00000000
00000000
00000000
00000000
00000000
00000000
00000000
00000000
00003000
0003F000
000FF800
003FF800
00FFF800
03FFFC00
07FFFC00
03FFFE07
03FFC7FF
01FE01FF
01F8E7E0
03E0E600
0FC0F000
1F807000
1981E000
01CF8000
01FF0000
00FE0000
01FC0000
07B80000
0E380000
0C700000
18700000
1FF00000
0FE00000
00E00000
00600000
00E00000
00E00000
00E00000
00E00000
00600000
00700000
00700000
007F0000
007F0003
01C7000C
038EE1F5
01FE8E5E
00FF446B
000FB2B7
0007C9DB
0003E676
0001F9F3
38007E1F
7FE03FE0
21F00FFF
387003FF
1FC003FF
00000FFF
00003FFF
00007FFF
0000FFFF
0000FFFF
00003FF0
00000000
ENDCHAR
STARTCHAR duck_pgf_af5e4607_f000016_r1_c2
ENCODING 1052947
SWIDTH 500 0
DWIDTH 32 0
BBX 32 64 0 -13
BITMAP
00000000
00000000
00000000
00000000
00000000
00000000
00000000
00000000
00000000
00000000
00000000
00000000
00000000
00000000
00000000
FF800000
FFE00000
BFF80000
00FC0000
003F0000
000F8000
00078000
0003C000
0001E000
0000F000
00007000
00007800
00003C00
00003C00
0000DE00
0000DE00
00017E00
00026F00
0005EF00
000AEF00
00306F00
00636F00
00866F00
010EAF00
061DEF00
08712E00
31D26E00
C3FE5E00
0FD3DC00
76263C00
2DB9BC00
8FF7F800
EF4FF000
B8DFF000
DABFE000
A75FE000
F0DFE000
FF1FE000
00FFE000
FFFFE000
FFFFFC00
FF9FFF80
F81FFFE0
F81FFFF0
F81FFFF8
F81FFFFC
F81FFFFC
000FFFF8
00000000
ENDCHAR
STARTCHAR duck_pgf_af5e4607_f000017_r1_c1
ENCODING 1052948
SWIDTH 500 0
DWIDTH 32 0
BBX 32 64 0 -13
BITMAP
00000000
00000000
00000000
00000000
00000000
00000000
00000000
00000000
00003000
0003F000
000FF800
003FF800
00FFF800
03FFFC00
07FFFC7F
03FFFFFF
03FF8FC0
01FE3E00
01F8F800
03E1E000
0FC38000
1F870000
198E0000
01DC0000
01F80000
00F80000
01F00000
07F00000
0E600003
0CE0000C
18E00010
1FE00061
0FE00182
00E00305
00E00419
00E00836
00601068
00702048
00704190
003081B0
00308120
1E3103E1
1FF186C3
18FE8247
1C1F4367
0FFFA1B0
03FFD2FA
001DEF7F
001CF775
000C79FF
00003E3F
00001FC0
000007FF
000003FF
07F8003F
0FFC007F
0C0C03FF
07F80FFF
03F03FFF
00007FFF
0000FFFF
0000FFFF
00003FF0
00000000
ENDCHAR
STARTCHAR duck_pgf_af5e4607_f000017_r1_c2
ENCODING 1052949
SWIDTH 500 0
DWIDTH 32 0
BBX 32 64 0 -13
BITMAP
00000000
00000000
00000000
00000000
00000000
00000000
00000000
00000000
00000000
00000000
00000000
00000000
00000000
00000000
F8000000
FF000000
0FC00000
03E00000
00F80000
003C0000
001E0000
00070000
00038000
0001C000
0000E000
0000E000
07FC7000
79937000
CD997000
2000B800
9020B800
B0A6B800
7027DC00
90365C00
18365C00
18025C00
38B6DC00
78325C00
F8125C00
FC1E5C00
FC615C00
EE9EB800
A57F3800
D2FFB800
FAFFF000
76FFF000
777FE000
FF7FE000
FFBFE000
FFBFE000
FE3FE000
01FFE000
FFFFE000
FFDFE000
FE1FE000
F81FFC00
F81FFF80
F81FFFE0
F81FFFF0
F81FFFF8
F81FFFFC
F81FFFFC
000FFFF8
00000000
ENDCHAR
STARTCHAR duck_pgf_af5e4607_f000018_r1_c1
ENCODING 1052950
SWIDTH 500 0
DWIDTH 32 0
BBX 32 64 0 -13
BITMAP
00000000
00000000
00000000
00000000
00000000
00000000
0000001F
0000007F
000031FF
0003F3F0
000FFF80
003FFE00
00FFFC00
03FFF800
07FFF000
03FFE000
03FFC000
01FF8000
01FF0000
03E70000
0FC60000
1F8E0000
198C0000
01DC0001
01FC003F
00F800FF
01F807FF
07B81FFF
0E303FFF
0C70DFFF
1873DFEF
1FF7BFFF
0FFF7FFF
007CFFFF
003DFEFF
002EFEFF
000EFF7F
000EFFFF
00077FBF
70077FFF
7007BFFF
D803FFFF
CE03DFFF
6381EFFF
70C0F7FF
3FC0FBFF
0F807CFF
00003F1F
00001FE1
000007FF
000003FF
0000007F
00000007
00000007
00000007
0000007F
000003FF
01FC0FFF
03FC3FFF
03187FFF
03F0FFFF
0000FFFF
00003FF0
00000000
ENDCHAR
STARTCHAR duck_pgf_af5e4607_f000018_r1_c2
ENCODING 1052951
SWIDTH 500 0
DWIDTH 32 0
BBX 32 64 0 -13
BITMAP
00000000
00000000
00000000
00000000
00000000
00000000
FF800000
FFF00000
FFF80000
01FE0000
003F0000
000F8000
0007C000
0001E000
0001E000
0000F000
00007800
00007800
00003C00
00001C00
00001C00
00000E00
00000E00
FC000E00
FFFFC700
FFFFF700
FFFFF700
FDFFF700
FFFFD700
FFFFF700
FFFFF700
FFFFF700
FFFFF700
FFFFF700
FFFFF700
FFFFF700
FFEFFF00
FFFFEE00
FFF0EE00
FFCF6E00
FFBF9C00
FF7F9C00
FF7FFC00
FF7FF800
FFBFF000
FFBFF000
FFDFE000
FFDFE000
FF1FE000
01FFE000
FFFFE000
FFFFE000
FF9FE000
F81FE000
F81FE000
F81FFC00
F81FFF80
F81FFFE0
F81FFFF0
F81FFFF8
F81FFFFC
F81FFFFC
000FFFF8
00000000
ENDCHAR
STARTCHAR duck_pgf_af5e4607_f000019_r1_c1
ENCODING 1052952
SWIDTH 500 0
DWIDTH 32 0
BBX 32 64 0 -13
BITMAP
00000000
00000000
00000000
00000000
000003FF
00001FFF
00007E07
0001F000
0003C000
00070000
000FF1FF
003FFF5F
00FFFFBE
03FFFFDF
07FFFDDF
03FFFCDF
03FF9B3F
01FE3BFF
01F8F3FF
03E0F3FF
0FC0F3FF
1F8073FF
198033FF
01CF33FF
01FFF3FF
00F8F3FF
01E073FF
0780F3FF
0E01FBFF
0C079BFF
181F03FF
1FFC03FF
0FFC03FF
001E017F
000F01FF
0003C1FF
0001E1FF
0000E0F6
600070FD
F00070FD
B00038FB
D8003C7B
CC001E7F
6C000E77
3E0007B7
080003D7
000001F7
000000FF
0000003F
0000001F
00000007
00000007
00000007
00000007
00000007
0000007F
000003FF
03000FFF
07FC3FFF
06FC7FFF
071CFFFF
03F8FFFF
00003FE0
00000000
ENDCHAR
STARTCHAR duck_pgf_af5e4607_f000019_r1_c2
ENCODING 1052953
SWIDTH 500 0
DWIDTH 32 0
BBX 32 64 0 -13
BITMAP
00000000
00000000
00000000
7FF80000
FFFF0000
E01F8000
0003E000
0000F000
00007800
00003C00
FF001E00
FFF00E00
DFDC0700
FFF60380
7BFD81C0
FFFFE1C0
FFFFF0E0
FFFFF8E0
FFFFFC60
FFFFFE70
FFFFFF70
FFFFFF70
FFFFFF70
FFFFFFB0
FFFFFFB8
FFFFFFB8
FFFFFFB8
FFFFFFB8
FFFFFFB8
FFFFFFB0
FFFFFFF0
FFFFFF70
FFFFFF70
FFFFFF70
FFFFFF70
FFFFFF70
0FFFFF70
F7FDFFE0
FBF33EE0
FBEFDEE0
FFEFEEE0
FFDFEDC0
FDDFEDC0
FBDFFB80
FBDFFB80
FBFFF700
FBEFEF00
FBFFFE00
FBFFFC00
F81FF800
FFFFE000
FFFFE000
FFFFE000
F81FE000
F81FE000
F81FFC00
F81FFF80
F81FFFE0
F81FFFF0
F81FFFF8
F81FFFFC
F81FFFFC
000FFFF8
00000000
ENDCHAR
STARTCHAR duck_pgf_af5e4607_f000020_r1_c1
ENCODING 1052954
SWIDTH 500 0
DWIDTH 32 0
BBX 32 64 0 -13
BITMAP
00000000
00000000
00000000
00000000
00000000
00000000
00000000
00000000
00003000
0003F003
000FF80F
003FF81F
00FFF83C
03FFFC78
07FFFCF0
03FFFFC0
03FFC7C0
01FE0380
01F8E700
03E0E600
0FC0E601
1F806E06
19800C0A
01CF0C11
01FFCC29
00F8EC52
01E06C52
0780ECA6
0E01C44D
0C07814B
181F0100
1FFC0270
0FFC0272
001E00E0
000F04E0
0003C4E0
0001E4E1
0000E4E2
000074E5
700070E5
F0003AEB
D8003D3B
CE001EB7
63000F77
3F8007B7
1F0003C7
000001F7
000000FF
0000003F
0000001F
00000007
00000007
00000007
00000007
00000007
0000007F
000003FF
00000FFF
00003FFF
000C7FFF
003FFFFF
0077FFFF
003E3FE0
00000000
ENDCHAR
STARTCHAR duck_pgf_af5e4607_f000020_r1_c2
ENCODING 1052955
SWIDTH 500 0
DWIDTH 32 0
BBX 32 64 0 -13
BITMAP
00000000
00000000
1FC00000
1FF80000
1FFE0000
073F0000
0F8F8000
7F83C000
FF85E000
F1C1F000
81C27800
0083BC00
00014E00
00016700
00011380
00000BC0
00FA45C0
07024AE0
18364EE0
62E46D70
9BC49B70
27449AB8
4D04DEB8
9D0489B8
39264DB8
70445ED8
74436EDC
E8916DDC
A9226D5C
D1612FDC
11000098
306060B8
0E01F0B8
639104B8
414082B8
6C1064B8
0E1811B8
F40C0970
FAE0CD70
F8E64770
F8E866E0
FCF70EE0
FCEFE5E0
F8DFEDC0
FADFEBC0
FADFE780
FADFEF00
FBDFFE00
FBDFFC00
F81FF800
FFFFE000
FFFFE000
FFFFE000
F81FE000
F81FE000
F81FFC00
F81FFF80
F81FFFE0
F81FFFF0
F81FFFF8
F81FFFFC
F81FFFFC
000FFFF8
00000000
ENDCHAR
ENDFONT
